<svg width="48" height="48" viewBox="0 0 48 48" fill="none" xmlns="http://www.w3.org/2000/svg">
<path fill-rule="evenodd" clip-rule="evenodd" d="M32.5908 19.211L23.4548 31.211C23.0788 31.705 22.4968 31.997 21.8768 32.001H21.8628C21.2488 32.001 20.6688 31.717 20.2888 31.233L15.4248 25.019C14.7448 24.151 14.8968 22.893 15.7668 22.213C16.6348 21.531 17.8948 21.683 18.5748 22.555L21.8408 26.727L29.4088 16.789C30.0768 15.911 31.3308 15.739 32.2128 16.409C33.0908 17.079 33.2608 18.333 32.5908 19.211M24.0008 4.00098C12.9548 4.00098 4.00079 12.955 4.00079 24.001C4.00079 35.045 12.9548 44.001 24.0008 44.001C35.0468 44.001 44.0008 35.045 44.0008 24.001C44.0008 12.955 35.0468 4.00098 24.0008 4.00098" fill="#5BBC38"/>
</svg>
